<?xml version="1.0"?>
<svg xmlns="http://www.w3.org/2000/svg" xmlns:xlink="http://www.w3.org/1999/xlink" version="1.1" id="Capa_1" x="0px" y="0px" viewBox="0 0 512 512" style="enable-background:new 0 0 512 512;" xml:space="preserve" width="24" height="24"><g><g>
	<g>
		<path d="M317,0C209.477,0,122,87.477,122,195c0,42.96,13.975,82.712,37.603,114.971L0,469.573L42.426,512l159.603-159.603    C234.288,376.025,274.04,390,317,390c107.523,0,195-87.477,195-195S424.523,0,317,0z M317,360c-90.981,0-165-74.019-165-165    S226.019,30,317,30s165,74.019,165,165S407.981,360,317,360z" data-original="#000000" class="active-path" style="fill:#ED4F5E" data-old_color="#000000"/>
	</g>
</g></g> </svg>
